<svg width="63" height="63" viewBox="0 0 63 63" fill="none" xmlns="http://www.w3.org/2000/svg">
<g clip-path="url(#clip0_106_5)">
<ellipse cx="32.3113" cy="31.3113" rx="30.3113" ry="30.3113" fill="#FF9900"/>
<path d="M31.5086 -0.00579834C14.0848 -0.00579834 -0.0401001 14.1191 -0.0401001 31.5429C-0.0401001 48.9667 14.0848 63.0915 31.5086 63.0915C48.9324 63.0915 63.0572 48.9667 63.0572 31.5429C63.0572 14.1191 48.9324 -0.00579834 31.5086 -0.00579834ZM57.6003 28.7227L57.5872 28.7122C52.5056 28.1851 47.6906 26.177 43.7403 22.9373L51.7991 14.8786C55.0458 18.8263 57.0628 23.6398 57.6003 28.7227ZM48.0769 11.1642L40.0286 19.236C36.7878 15.2863 34.7796 10.4712 34.2537 5.38919C39.3264 5.92322 44.1319 7.93073 48.0769 11.1642ZM29.0141 5.37603C29.5639 11.8564 32.1171 18.0051 36.3195 22.9688L31.5 27.7883L14.8995 11.1878C18.9212 7.88901 23.8358 5.86551 29.0141 5.37603ZM11.1866 14.901L11.1746 14.889L11.1878 14.8995C11.1873 14.9 11.1869 14.9005 11.1866 14.901L27.7883 31.5L22.9662 36.3221C18.0055 32.1179 11.8582 29.5636 5.37876 29.0141C5.86726 23.8366 7.88953 18.9226 11.1866 14.901ZM5.39968 34.2773V34.2668C10.4816 34.7927 15.2968 36.801 19.2465 40.0418L11.1878 48.1005C7.9497 44.157 5.93752 39.3514 5.39968 34.2773ZM14.91 51.8122L22.9582 43.7535C26.199 47.7032 28.2073 52.5184 28.7332 57.6003C23.6591 57.0625 18.8535 55.0503 14.91 51.8122ZM33.9859 57.6239C33.437 51.1436 30.8826 44.9953 26.6779 40.0338L31.5 35.2117L48.1005 51.8122C44.0795 55.1121 39.1646 57.1357 33.9859 57.6239ZM51.8071 48.1005L35.2117 31.5L40.0312 26.6805C44.9935 30.8819 51.1401 33.4351 57.6187 33.9859C57.1293 39.1642 55.1057 44.0788 51.8071 48.1005Z" fill="white"/>
</g>
<defs>
<clipPath id="clip0_106_5">
<rect width="63" height="63" fill="white"/>
</clipPath>
</defs>
</svg>
